<svg id="b4dfe609-a446-464d-aa1a-829eeb4a33ff" data-name="Layer 1" xmlns="http://www.w3.org/2000/svg" viewBox="0 0 1080 514.2"><defs><style>.ea0ccd80-6df5-49fc-8570-4b85cb8ffb2e{fill:#fff;}</style></defs><title>logo-monteranco</title><path class="ea0ccd80-6df5-49fc-8570-4b85cb8ffb2e" d="M335.5,461.7a3.8,3.8,0,0,1-2,3.4,175.3,175.3,0,0,1-30.4,11.2c-10.5,2.8-22.7,5.5-36.6,8.2v.7a12.5,12.5,0,0,1-1.1,4.8,17.2,17.2,0,0,1-7.4,7.7,24.2,24.2,0,0,1-10.8,2.9,13.3,13.3,0,0,1-3.8-.5,13.4,13.4,0,0,1-3.4-1.3,5.7,5.7,0,0,1-2.9-5,9.5,9.5,0,0,1,2.6-6.4,20.9,20.9,0,0,1,6.8-4.9,40.6,40.6,0,0,1,10.3-3.1l-.5-.5a59.5,59.5,0,0,0-4.8-4.4l-3-2.5a22.2,22.2,0,0,1-3.1-3.4c-2.3-3.4-3.5-6.6-3.5-9.7a9.5,9.5,0,0,1,.6-3.5,11.3,11.3,0,0,1,4.7-5,12.7,12.7,0,0,1,6.2-1.6c4.3,0,8.7,1.7,13.1,5.1a13.6,13.6,0,0,1,5.5,6.7v1.1a2.4,2.4,0,0,1,.2.9,3.7,3.7,0,0,1-2.1,3.3,3.1,3.1,0,0,1-2.1.2,5.4,5.4,0,0,1-1.6-.9,5.6,5.6,0,0,1-.5-1.8l-.4-1.7v.5a1.5,1.5,0,0,0,.1.7,7.8,7.8,0,0,0-3-3.3,16.4,16.4,0,0,0-6.6-3.5,7.4,7.4,0,0,0-2.5-.5,9.3,9.3,0,0,0-3.2.8,3.4,3.4,0,0,0-1.9,3c0,1.2.7,3,2.2,5.2a59.2,59.2,0,0,0,5.3,5,45.8,45.8,0,0,1,7,6.8l1.3,1.5c14-2.7,26.1-5.4,36.5-8.2a177.5,177.5,0,0,0,29.9-10.9,3.1,3.1,0,0,1,4.4,1.6Zm-75.7,24.1a43.1,43.1,0,0,0-10.7,3,29,29,0,0,0-3.5,2.1,4.4,4.4,0,0,0-1.8,2.1l1.3.5c1,.2,1.6.3,1.9.1a15.4,15.4,0,0,0,7.3-1.7,12.2,12.2,0,0,0,5.2-5.1A2.2,2.2,0,0,0,259.8,485.8Zm9.1-26.6a2.8,2.8,0,0,1,1.3.4A1.8,1.8,0,0,0,268.9,459.2Z"/><path class="ea0ccd80-6df5-49fc-8570-4b85cb8ffb2e" d="M338.2,473.5a7.2,7.2,0,0,0,2.5,6.9c1.2,1.2,3,1.8,5.5,1.8a21.4,21.4,0,0,0,8.9-2.3c10.9-4.9,21.6-13.3,32-25.3a2.9,2.9,0,0,1,2.4-1.2,3.5,3.5,0,0,1,2.2.9,3.4,3.4,0,0,1,1.2,2.6,3.3,3.3,0,0,1-1,2.3c-10.9,12.7-22.2,21.7-34.1,27.1a27.6,27.6,0,0,1-11.6,2.7,14.1,14.1,0,0,1-9.6-3.2,14.5,14.5,0,0,1-5.1-11.1,16.7,16.7,0,0,1,1.1-6.3,30.6,30.6,0,0,1,7.3-11.7c3.5-3.6,7-5.9,10.3-6.9a20.2,20.2,0,0,1,5.2-.9,13.8,13.8,0,0,1,3.7.5,7.4,7.4,0,0,1,4.8,3.9,6.2,6.2,0,0,1,.8,3.1,9.7,9.7,0,0,1-1.1,4.2q-2.7,6-9.9,9.6a32.6,32.6,0,0,1-8,2.6A42.7,42.7,0,0,1,338.2,473.5ZM358,456.4l-1.3-.3-1.7-.2a10.6,10.6,0,0,0-3.1.5,15.5,15.5,0,0,0-5.9,3.7,30.7,30.7,0,0,0-5.3,6.5,32.1,32.1,0,0,0,10.1-2.7,13.8,13.8,0,0,0,6.9-6.3l.3-.8Z"/><path class="ea0ccd80-6df5-49fc-8570-4b85cb8ffb2e" d="M487.2,461.7a3.7,3.7,0,0,1-1.9,3.4,175.3,175.3,0,0,1-30.4,11.2c-10.6,2.8-22.8,5.5-36.6,8.2v.7a14.7,14.7,0,0,1-1.1,4.8,16.9,16.9,0,0,1-7.5,7.7,23.5,23.5,0,0,1-10.8,2.9,12.6,12.6,0,0,1-3.7-.5,14.2,14.2,0,0,1-3.5-1.3,5.6,5.6,0,0,1-2.8-5,9.4,9.4,0,0,1,2.5-6.4,20.3,20.3,0,0,1,6.9-4.9,41,41,0,0,1,10.2-3.1l-.5-.5a43.2,43.2,0,0,0-4.7-4.4c-.6-.4-1.6-1.3-3-2.5a17.9,17.9,0,0,1-3.1-3.4,16.7,16.7,0,0,1-3.5-9.7,9.5,9.5,0,0,1,.6-3.5,11.6,11.6,0,0,1,4.6-5,13.1,13.1,0,0,1,6.3-1.6c4.2,0,8.6,1.7,13.1,5.1a13.4,13.4,0,0,1,5.4,6.7l.2,1.1a2.5,2.5,0,0,1,.1.9,3.8,3.8,0,0,1-2,3.3,3.2,3.2,0,0,1-2.1.2,4.4,4.4,0,0,1-1.6-.9,9.3,9.3,0,0,1-.6-1.8,10.8,10.8,0,0,0-.4-1.7v.5a1.4,1.4,0,0,0,.2.7,8.9,8.9,0,0,0-3.1-3.3,16.7,16.7,0,0,0-6.5-3.5,8,8,0,0,0-2.6-.5,9.9,9.9,0,0,0-3.2.8,3.6,3.6,0,0,0-1.9,3c0,1.2.8,3,2.3,5.2a69.3,69.3,0,0,0,5.2,5,47.6,47.6,0,0,1,7.1,6.8l1.2,1.5c14-2.7,26.2-5.4,36.6-8.2a176.5,176.5,0,0,0,29.8-10.9,3.3,3.3,0,0,1,1.4-.4,3.6,3.6,0,0,1,3.1,2Zm-75.6,24.1a41.9,41.9,0,0,0-10.7,3l-3.6,2.1a4.8,4.8,0,0,0-1.7,2.1,3.6,3.6,0,0,0,1.3.5,3.2,3.2,0,0,0,1.9.1,15,15,0,0,0,7.2-1.7,11.7,11.7,0,0,0,5.2-5.1A1.6,1.6,0,0,0,411.6,485.8Zm9.1-26.6a3.8,3.8,0,0,1,1.3.4A2.2,2.2,0,0,0,420.7,459.2Z"/><path class="ea0ccd80-6df5-49fc-8570-4b85cb8ffb2e" d="M506.9,457.1l-1,1.3-3.2,4.8c-3.3,5.4-4.9,9.5-4.9,12.3a4.2,4.2,0,0,0,.3.9,1,1,0,0,0,.8.5l2.1.3a18.8,18.8,0,0,0,5.7-1.3,42.3,42.3,0,0,0,5-2.3l3.8-1.9q24.3-12.4,39.5-22.6a2.5,2.5,0,0,1,1.8-.7,3.3,3.3,0,0,1,2.8,1.7,2.5,2.5,0,0,1,.5,1.7,3.5,3.5,0,0,1-1.6,3.1c-10,6.7-23.4,14.3-40.1,23-.8.3-2.3,1.1-4.7,2.4a49.7,49.7,0,0,1-7,2.9,25.1,25.1,0,0,1-5.7.8,17.4,17.4,0,0,1-3.9-.5,7,7,0,0,1-4.5-3,9.8,9.8,0,0,1-1.4-5.1,8.8,8.8,0,0,1,.2-2,23.1,23.1,0,0,1,1.8-6.2c.9-2,2.2-4.5,3.8-7.5a45.5,45.5,0,0,1,3.6-5.4,19.7,19.7,0,0,1,1.5-2l.8-1a2.5,2.5,0,0,1,1.9-.7,4.9,4.9,0,0,1,1.8.5l.9.8a2.9,2.9,0,0,1,.8,2.2,6.4,6.4,0,0,1-.3,1.5A7.3,7.3,0,0,1,506.9,457.1Zm2.8-14a2.8,2.8,0,0,1-1.9-.4,3.6,3.6,0,0,1-1.4-1.6,4.9,4.9,0,0,1-.3-1.5,3.1,3.1,0,0,1,1.7-2.9,2.9,2.9,0,0,1,1.9-.5,2.9,2.9,0,0,1,1.6.6,3.2,3.2,0,0,1,1.5,2.8,4,4,0,0,1-.7,2A3.8,3.8,0,0,1,509.7,443.1Z"/><path class="ea0ccd80-6df5-49fc-8570-4b85cb8ffb2e" d="M575.9,481.2a18.5,18.5,0,0,1-4.9.8,14.4,14.4,0,0,1-9-3c-3.9-3-5.9-7.4-5.9-13.3a17.1,17.1,0,0,1,2.3-8.4,20,20,0,0,1,6-6.9,14.7,14.7,0,0,1,8.2-2.6,13.7,13.7,0,0,1,9.7,4.1c.2,0,.5.5,1,1.5a13.2,13.2,0,0,1,1.9,4.5,3.9,3.9,0,0,1-.3,2.3,11,11,0,0,1,1.4,6.4,15,15,0,0,1-3.5,10.1,23,23,0,0,0,4.5.5,35.3,35.3,0,0,0,8.5-1.2,67.2,67.2,0,0,0,14.7-6.1c4.7-2.7,10.4-6.3,17.3-10.8s10.3-6.9,12.8-8.3a2.4,2.4,0,0,1,1.6-.5,2.8,2.8,0,0,1,2.8,1.8,3.2,3.2,0,0,1,.5,1.8,3.2,3.2,0,0,1-1.6,2.9q-5.5,3.3-12.6,8.1c-7,4.5-13,8.3-18.1,11.1a75,75,0,0,1-15.8,6.7,35.2,35.2,0,0,1-9.6,1.3A23.8,23.8,0,0,1,575.9,481.2Zm1-24.9a5.8,5.8,0,0,0-4.1-1.5h-.7a8.4,8.4,0,0,0-6.5,3.7,12.2,12.2,0,0,0-2.8,7.7c0,3.4,1.1,5.7,3.2,7.2a9.5,9.5,0,0,0,3.4,1.5,14.4,14.4,0,0,1-2.6-8,10.6,10.6,0,0,1,1-4.5,9.3,9.3,0,0,1,3.6-4.2,10.3,10.3,0,0,1,4.9-1.9Zm-.3,16.9a8.9,8.9,0,0,0,3.2-6.8,4.1,4.1,0,0,0-.8-2.8,2.3,2.3,0,0,0-1.5-.5h-1.1a3.5,3.5,0,0,0-2.5,2.2,3.4,3.4,0,0,0-.3,1.7,8,8,0,0,0,1.7,4.6Z"/><path class="ea0ccd80-6df5-49fc-8570-4b85cb8ffb2e" d="M717.5,458.9a3.5,3.5,0,0,1-1.2,2.5,96.1,96.1,0,0,1-16,12.7,75.6,75.6,0,0,1-15.9,8.2,20.5,20.5,0,0,1-7.9,1.7l-2.4-.3a7.8,7.8,0,0,1-4.1-3.3,8.6,8.6,0,0,1-1.1-4.7,14.2,14.2,0,0,1,.1-2.3,23.6,23.6,0,0,1,2.5-7.8c1.3-2.7,2.1-4.3,2.3-4.9l.5-1.1-.5.3a28.9,28.9,0,0,0-4.5,3q-3,2.6-8.4,8.1a64.1,64.1,0,0,1-5,4.9l-3.2,2.9a19.2,19.2,0,0,1-5,3.4,5.4,5.4,0,0,1-2.2.5,4,4,0,0,1-2.4-.9,3.3,3.3,0,0,1-1.4-2.3l-.2-1.1.3-2.2a83.1,83.1,0,0,1,3.6-9.2l3-6.4.9-2.3a12.5,12.5,0,0,0,1-2.9l.2-1a2.7,2.7,0,0,1,.4-1.6,3.2,3.2,0,0,1,1.5-1.7,4.3,4.3,0,0,1,2.5-.2,3.3,3.3,0,0,1,2.3,3.5l-.5,3.2-2.2,5.6-3.7,8.2.9-.9,4.5-4.3a80.3,80.3,0,0,1,9-8.6c4.7-4,8.8-5.8,12.3-5.5a4.8,4.8,0,0,1,2.5,1.2,5,5,0,0,1,1.6,3.6,11.1,11.1,0,0,1-.6,3.4c-.4,1.3-.8,2.3-1.1,3.1s-.9,2.1-1.8,4a28.5,28.5,0,0,0-2.2,5.3,7,7,0,0,0-.5,2.5c0,1.1.3,1.8,1,2l1.6-.2,4.3-1.1a71.5,71.5,0,0,0,14.5-7.7,103.6,103.6,0,0,0,15.1-11.8,3.2,3.2,0,0,1,2.2-1,2.9,2.9,0,0,1,2.4,1.2A3.4,3.4,0,0,1,717.5,458.9Z"/><path class="ea0ccd80-6df5-49fc-8570-4b85cb8ffb2e" d="M720.2,473.5a7.5,7.5,0,0,0,2.5,6.9c1.2,1.2,3,1.8,5.5,1.8a21,21,0,0,0,8.9-2.3c10.9-4.9,21.6-13.3,32-25.3a3.1,3.1,0,0,1,2.4-1.2,3.7,3.7,0,0,1,2.3.9,3.6,3.6,0,0,1,1.1,2.6,2.9,2.9,0,0,1-1,2.3q-16.4,19.1-34,27.1a28.4,28.4,0,0,1-11.7,2.7,14.1,14.1,0,0,1-9.6-3.2,14.5,14.5,0,0,1-5.1-11.1,16.7,16.7,0,0,1,1.1-6.3,30.6,30.6,0,0,1,7.3-11.7c3.6-3.6,7-5.9,10.3-6.9a20.2,20.2,0,0,1,5.3-.9,13,13,0,0,1,3.6.5,7.4,7.4,0,0,1,4.8,3.9,5.3,5.3,0,0,1,.8,3.1,8.5,8.5,0,0,1-1.1,4.2q-2.7,6-9.9,9.6a32.6,32.6,0,0,1-8,2.6A42.7,42.7,0,0,1,720.2,473.5ZM740,456.4l-1.3-.3-1.7-.2a10.6,10.6,0,0,0-3.1.5,15.5,15.5,0,0,0-5.9,3.7,30.7,30.7,0,0,0-5.3,6.5,31.4,31.4,0,0,0,10.1-2.7,13.8,13.8,0,0,0,6.9-6.3l.3-.8Z"/><path class="ea0ccd80-6df5-49fc-8570-4b85cb8ffb2e" d="M869.2,461.7a3.7,3.7,0,0,1-1.9,3.4,175.3,175.3,0,0,1-30.4,11.2c-10.5,2.8-22.7,5.5-36.6,8.2v.7a14.7,14.7,0,0,1-1.1,4.8,16.9,16.9,0,0,1-7.5,7.7,23.5,23.5,0,0,1-10.7,2.9,12.8,12.8,0,0,1-3.8-.5,13.4,13.4,0,0,1-3.4-1.3,5.5,5.5,0,0,1-2.9-5,9.4,9.4,0,0,1,2.5-6.4,20.3,20.3,0,0,1,6.9-4.9,41,41,0,0,1,10.2-3.1l-.4-.5a59.5,59.5,0,0,0-4.8-4.4l-3-2.5a17.9,17.9,0,0,1-3.1-3.4,16.7,16.7,0,0,1-3.5-9.7,9.5,9.5,0,0,1,.6-3.5,11.3,11.3,0,0,1,4.7-5,12.7,12.7,0,0,1,6.2-1.6c4.3,0,8.6,1.7,13.1,5.1a12.9,12.9,0,0,1,5.4,6.7l.2,1.1a2.4,2.4,0,0,1,.2.9,3.7,3.7,0,0,1-2.1,3.3,3.2,3.2,0,0,1-2.1.2,4.4,4.4,0,0,1-1.6-.9,9.3,9.3,0,0,1-.6-1.8,10.8,10.8,0,0,0-.4-1.7v.5a1.4,1.4,0,0,0,.2.7,8.6,8.6,0,0,0-3-3.3,17.7,17.7,0,0,0-6.6-3.5,7.5,7.5,0,0,0-2.6-.5,8.8,8.8,0,0,0-3.1.8,3.5,3.5,0,0,0-2,3c0,1.2.8,3,2.3,5.2a69.3,69.3,0,0,0,5.2,5,43,43,0,0,1,7.1,6.8l1.3,1.5c13.9-2.7,26.1-5.4,36.5-8.2a176.5,176.5,0,0,0,29.8-10.9,3.7,3.7,0,0,1,1.5-.4,3.4,3.4,0,0,1,3,2Zm-75.6,24.1a41.9,41.9,0,0,0-10.7,3,29,29,0,0,0-3.5,2.1,4.4,4.4,0,0,0-1.8,2.1l1.3.5a3.2,3.2,0,0,0,1.9.1,15.4,15.4,0,0,0,7.3-1.7,12.2,12.2,0,0,0,5.2-5.1A2.2,2.2,0,0,0,793.6,485.8Zm9.1-26.6a3.3,3.3,0,0,1,1.3.4A2,2,0,0,0,802.7,459.2Z"/><path class="ea0ccd80-6df5-49fc-8570-4b85cb8ffb2e" d="M202.3,320.2c0-.6-.2-3-.5-5.4-2.8-26.3-8.7-92.9-11.3-119.2l-.4-3.1L185,203.4c-11.3,23.9-17.8,41.7-24,44.4-17,7.3-19.9-21.2-20.1-39v-3.9l-3.5,7.1c-1.9,3.9-6.3,15.5-10.6,24.4C107,277.7,99.3,301.9,96,303.3c-5.2,2.2-8-4.5-4-7.8,2.4-2.1,8.1-23.8,25.2-63.5,12.4-28.7,16.7-46.3,19.5-50s8.3-5.2,11.9-2.5,4.2,5.7,4.8,19.9,3.7,25.8,3.7,34c0,.7,1.7-1.8,5.1-7.4s21.8-50.7,23.7-53.2c4.2-5.3,11.5-4.5,14.3,1.7s10.3,119,10.3,143.6c0,3.5-1.3,5.9-4.1,5.9S202.3,321.8,202.3,320.2Z"/><path class="ea0ccd80-6df5-49fc-8570-4b85cb8ffb2e" d="M257.7,242c12.3-2.8,20.4,15,19.2,29.3-.2,2.9-.2,3.8.3,4,2.6,1.1,15.4.9,22.1-.3,2.8-.4,3.6-.4,4.6.2,13.1,8.5-28.2,10.5-30.3,10.5-5.8,14.2-19.8,28.4-31.1,13.4-6.9-9.1-5.9-23.2,2.5-37.6a14.3,14.3,0,0,0,1.9-5C247.7,248.8,252.2,243.2,257.7,242Zm-8.2,33.2c-1.5,6.3-1.2,11.7,1.1,14.9,4.2,6.2,7.7-2,9.2-5.4l1.3-2.9-3.6-2.5a33.6,33.6,0,0,1-5.4-4.7l-1.9-2.2Zm12.2-8.1,1.6,2a22.8,22.8,0,0,0-1.4-9l-1-2.7C259.3,259.5,258.9,263.2,261.7,267.1Z"/><path class="ea0ccd80-6df5-49fc-8570-4b85cb8ffb2e" d="M329.7,264c-1.2,3.1-1.2,3.1-.2,1.8a56.9,56.9,0,0,1,8.5-8.5c21.5-14.9,23.7,23.7,29.8,35.7s16.7-9.8,19.1-14.7c1.2-2.7,2.5-5.1,3-5.4,5-4.2,7.1,2.6,5.2,8.2-4.8,14.4-14.2,29.9-27,26.9-11.2-2.7-13.8-12.9-17.9-27.1-2.5-8.9-3.6-11.9-4.3-12.3-5-3.1-16.2,13.9-18.9,19.3-4.5,9-6,16.3-9.5,16.3s-6.7-2.8-7.2-7.4c-1-10.2,17.8-62.6,25.5-54.9C339.5,245.6,331,260.4,329.7,264Z"/><path class="ea0ccd80-6df5-49fc-8570-4b85cb8ffb2e" d="M431.8,222.7a20.6,20.6,0,0,0,3.3-.3c7.9-1.1,22.6-2.2,22.6,3.9s-17.3,8.5-23.8,9.8l-6.7,1.6c-1.1,1.1-14,55.2-17.5,73.2-.6,3.3-2.7,6.9-6.4,4.8-1.8-1-2.2-2.3-2.2-8.3,0-18.9,3.5-40.2,10.1-61.2a38.8,38.8,0,0,0,1.6-5.8c-2-2.1-10.8,8.2-14.4,3.6-5.3-6.8,10.7-14.7,17.2-17l2.9-1.1,3.4-6.8c5.5-10.9,9.1-15.6,12.9-16.8,7.3-2.2,8.3,10.1,2.8,10.1C435.7,212.4,431.1,222,431.8,222.7Z"/><path class="ea0ccd80-6df5-49fc-8570-4b85cb8ffb2e" d="M475,245.2c4.7.2,8.3,3.4,9.2,9.3,2.1,13-18.1,34.2-28.6,30.1-2-.8-1.4,12.5-1,13.9,4.6,20.3,28-2.6,35.9-13.4,2.8-3.9,5.3-10.7,6.6-10.7,11.4,0-5.3,23.5-9,27.8-8.9,10.7-20.7,19-29.6,17.3-10.8-2.1-18-12.9-18-26.9s6.5-28.4,17.8-39.2C464.2,247.7,470.2,245,475,245.2Zm-17.1,31.9c3.4,0,10.2-9.4,11.9-12.3s3.4-6.9,2.8-6.9C468.9,257.9,456.6,277.1,457.9,277.1Z"/><path class="ea0ccd80-6df5-49fc-8570-4b85cb8ffb2e" d="M637.7,216.6c-7,10.4-46.2,40.2-69.3,47.9-1.2.4,6,11.2,12.5,18.7,8.8,10.3,27.8,28,45.9,42.8,5.9,4.9,6.6,5.9,5.6,8.3s-3.5,3.1-8.6.4c-21.8-11.4-41.2-28.5-53.3-47-3.4-5.1-8.3-14.4-9.3-17.4s-7.2-.3-9.3,1.6c-.1.1-.9,4.4-1.9,9.7-2.2,12.6-4.5,28.4-5.2,37s-2.9,15.3-9.7,10.7c-1.8-1.2-3-3.6-4.7-9.7s-9.3-32.3-15.2-52.8c-9.5-32.2-11.8-44-11.2-56.7,1.4-29.7,33.2-45,65.4-44.7S660.3,182.9,637.7,216.6Zm-119-14.7-1.8,3.6-1,8.4c0,12.6,2,17.6,11.4,52,2.6,9.4,5.7,21,7,25.8,1.8,6.9,2.4,8.4,2.6,7.5s4.6-23.1,4.6-23.7-.6-.4-1.3-.4a3.6,3.6,0,0,1-3.4-3.6c0-3.9,6.3-3.3,7-6,1.2-4.5,10.8-52.8,9.2-57.5s3.6-9.6,7.4-6c2.1,2,.9,20.6-4.4,47.9-1.1,6-2.1,11.1-2.1,11.4s21.6-10.4,28.7-14.6c17.7-10.6,33.1-22.1,41.5-31,13.1-13.9,9.5-19.3-7-27.2C585.7,173.4,533.1,173.2,518.7,201.9Z"/><path class="ea0ccd80-6df5-49fc-8570-4b85cb8ffb2e" d="M682.2,252c14.5-10.3,12.5,17.5,17,23.5,6.7,8.8,25.1,7.9,34.4,1.6,3.7-2.5,7.3-1.2,7.3,2.7,0,1.6-.3,2.2-1.9,3.6-14.4,14-43.5,11.6-52.6-5.5l-1.1-2.1-3.9,5.8c-5,7.4-9.8,12.9-14.5,16.7-11,8.8-28,14.5-31-.8-2.7-13.7,17.7-41,35-46.8,3.5-1.2,6.1-1.3,9.1.2Zm-32,34.3c-.7,1.6-3.1,8.1-1,7.5,9.8-3,18.2-14.3,25.5-27.1,3.5-6.2.9-3.6.9-7.6,0-1.3-1.3-.3-3.7,1C664.5,264,654.9,275.6,650.2,286.3Z"/><path class="ea0ccd80-6df5-49fc-8570-4b85cb8ffb2e" d="M762.9,264c-1.2,3.1-1.2,3.1-.2,1.8a61.5,61.5,0,0,1,8.4-8.5C792.7,242.4,794.9,281,801,293s16.7-9.8,19.1-14.7c1.2-2.7,2.5-5.1,3-5.4,5-4.2,7.1,2.6,5.2,8.2-4.8,14.4-14.2,29.9-27,26.9-11.2-2.7-13.8-12.9-17.9-27.1-2.5-8.9-3.6-11.9-4.3-12.3-5.1-3.1-16.2,13.9-18.9,19.3-4.5,9-6,16.3-9.5,16.3s-6.7-2.8-7.2-7.4c-1-10.2,17.8-62.6,25.5-54.9C772.7,245.6,764.2,260.4,762.9,264Z"/><path class="ea0ccd80-6df5-49fc-8570-4b85cb8ffb2e" d="M877.1,256.3c-1.4-1.1-3.2-1-7.3.6-9.1,3.4-25.9,18.3-24.8,31.7.7,8.8,12.9,7.8,20.6,5.2s24.8-11.5,37.2-19.3c5.8-3.8,10.1-4.7,10.1,1,0,2-.8,2.9-7.7,8.6-14,11.6-30.2,21-40.9,23.8-17.9,4.8-31.8-2.8-32.5-18.2-1-21.1,18.7-36.1,33.9-41.4,3.7-1.2,10.9-2.2,14.4-.4C886.7,251.1,882.8,260.8,877.1,256.3Z"/><path class="ea0ccd80-6df5-49fc-8570-4b85cb8ffb2e" d="M941.1,242c12.4-2.8,20.5,15,19.3,29.3-.3,2.9-.2,3.8.3,4,2.6,1.1,15.4.9,22.1-.3,2.8-.4,3.6-.4,4.5.2,13.1,8.5-28.1,10.5-30.2,10.5-5.8,14.2-19.9,28.4-31.2,13.4-6.8-9.1-5.9-23.2,2.6-37.6a19.9,19.9,0,0,0,1.9-5C931.2,248.8,935.7,243.2,941.1,242ZM933,275.2c-1.6,6.3-1.2,11.7,1,14.9,4.3,6.2,7.8-2,9.2-5.4l1.3-2.9-3.5-2.5a40.1,40.1,0,0,1-5.5-4.7l-1.8-2.2Zm12.2-8.1,1.5,2a21.1,21.1,0,0,0-1.4-9l-.9-2.7C942.8,259.5,942.3,263.2,945.2,267.1Z"/><path class="ea0ccd80-6df5-49fc-8570-4b85cb8ffb2e" d="M687,10.7c4.2-2.2,9.3-4.3,13.9-2s10.1,6.7,15.5,9.7,10.8,4.9,15.1,9,6.9,13.6,12.7,18.9,12.2,7.7,18.9,10.5c9.1,3.7,18.1,7.9,25.9,14,5.8,4.5,12.1,8.3,18.2,12.3a35.8,35.8,0,0,1,10.6,11.3c-5.1-3.2-10.9-4.9-16.1-8-7.2-3.9-14.1-8.3-21.3-12.2-11.6-6.2-25.2-7.4-36.5-14.1a33.4,33.4,0,0,1-12.3-11.6c-2.5-3.8-3.9-8.2-5.9-12.3s-6.4-6.3-9.9-8.9c-5.9-4.1-10.5-9.6-15.6-14.4-14.3,23.9-31.9,45.5-48.1,68-5.1,7.4-11.2,14-16.9,21a82,82,0,0,1,6.4-16.4c-5,5.5-10.2,10.8-16.4,14.9,4-6,7.1-12.6,11.2-18.5,6.2-9.2,12.6-18.3,18.8-27.6-7.2,6.5-14,13.5-21.8,19.3-5.1,3.8-10.1,7.7-15.1,11.6a296.8,296.8,0,0,1,20.1-24.7,221.7,221.7,0,0,1-24.5,16.3,200,200,0,0,1,14.1-15,281.3,281.3,0,0,1-27.3,16.8c4.9-4.8,9.6-9.8,15-14s11.9-8.7,17.8-13.2a17.5,17.5,0,0,1-10.6-6,56,56,0,0,0-8.3,6.2l-2.2.8c1,1.5-.5,2.3-1.3,3.2a46.8,46.8,0,0,0-5.4,5.5l-1.4-1.4a27.8,27.8,0,0,0,7.3-6.4c-16.6,9.9-31.9,23.3-51.3,27.1a89.5,89.5,0,0,0,18,11,80,80,0,0,1,14.2,8.1c-14.2-.7-26.8-7.9-39.6-13.3-11.2-5-23.8-1.6-35.5-3.6S498.2,75,488.1,72.4s-19.2-5.4-28-10.1-14.5-11.5-21.9-16.9a114,114,0,0,1-10-8.4c-5.3,11.4-9.9,23.1-16.1,33.9-7.7,13.3-15.4,26.8-25.9,38C391,98.2,397,88.1,401.9,77.5c-6.2,9.5-13.6,18.1-21.2,26.4a225.7,225.7,0,0,1,17-31.8c-11.1,12.2-21.4,25.3-34,36.1,5.6-10.2,12.5-19.6,19.4-29A155.8,155.8,0,0,1,360,95.6c3.5-4.5,6.9-9.2,10.2-13.9-6.6,5.2-13,10.8-19.6,16s-12.4,8.5-18.3,13.1c4.1-5.3,8.9-9.9,12.4-15.5,7.9-7.8,17-14.3,24.9-22.1-17.3,10.8-33.1,23.9-49.3,36.1q-21.3,15.8-43,30.7A188.8,188.8,0,0,1,250,155.6a87.8,87.8,0,0,0-10,5.5c4.7-6.3,12.3-9.2,18.6-13.6,18.8-12.4,36.4-26.5,53.9-40.6,14-11.9,27.7-24.3,42.8-34.9Q375.1,58.1,395,44.5c8-5.2,16-10.7,24.8-14.2,3.4-1.4,7.8-2.3,10.5.8,6.9,7,15.1,12.4,22.4,18.9,10.7,9.3,25.4,10,38.5,13,9.3,1.7,17.2,7.8,26.7,8.5,11.8.9,24,.1,35.1,4.7,16.8-4.2,30.6-15.1,44.6-24.6,6.5-4.4,12.8-9.1,19.3-13.4,2.8-1.6,6.2-3.9,9.7-2.5s3.8,7.5,8.5,7.3c6.5-.5,11.9-4.8,17.1-8.3,11.5-8.2,22.4-17.2,34.8-24"/><path class="ea0ccd80-6df5-49fc-8570-4b85cb8ffb2e" d="M692.7,34.2a38.2,38.2,0,0,1,8.4-9.5L665.6,81c7.2-16.6,17-31.9,27.1-46.8"/><path class="ea0ccd80-6df5-49fc-8570-4b85cb8ffb2e" d="M689.5,50.1c2.7-3.5,4.7-8.5,9.7-9.1-.9,5.5-4.9,9.6-7.6,14.2-4.6,7.2-10.1,13.7-15.5,20.3,4.2-8.6,7.9-17.5,13.4-25.4"/><path class="ea0ccd80-6df5-49fc-8570-4b85cb8ffb2e" d="M615.5,54.6c3.4-2.3,7.1-5.7,11.5-4.6.1.5.2,1.6.3,2.1-10.1,7.8-20.3,15.4-31,22.3,6.4-6.6,11.7-14.4,19.2-19.8"/><path class="ea0ccd80-6df5-49fc-8570-4b85cb8ffb2e" d="M418.4,73c2.9-4.8,5-10.5,9.8-13.6-.9,5.1-3.9,9.5-6,14.2-5.9,11.1-11.2,22.6-19,32.6,3.8-11.6,9.5-22.5,15.2-33.2"/><path class="ea0ccd80-6df5-49fc-8570-4b85cb8ffb2e" d="M602.1,63.6c-1.6-1.1,1-2.6,1.9-1.4l-1.9,1.4"/><path class="ea0ccd80-6df5-49fc-8570-4b85cb8ffb2e" d="M678,79.5c4.7-5.1,9-10.5,14.1-15.3-3.3,6.2-8.8,10.9-14.1,15.3"/><path class="ea0ccd80-6df5-49fc-8570-4b85cb8ffb2e" d="M431.3,72.9c-2.1,10.1-8.5,18.7-12.6,28.1a114.6,114.6,0,0,1,12.6-28.1"/><path class="ea0ccd80-6df5-49fc-8570-4b85cb8ffb2e" d="M433.4,91.9c.8,1,1.7,2.2,1.1,3.6-1,4.1-3.2,7.8-5.1,11.6,1.2-5.1,2.9-10,4-15.2"/><path class="ea0ccd80-6df5-49fc-8570-4b85cb8ffb2e" d="M467.8,57.6c3.9,2.1,7.8,4,11.9,5.8a97.2,97.2,0,0,0,6.4-11.2c4.6,4.7,8.6,11.2,12.5,18.2l4.3,1.4A194.3,194.3,0,0,0,491.2,49c-2-3.4-4.2-6.3-6.8-7.7a9.9,9.9,0,0,0-3.1-1.2c-3.4,3.7-6.6,8.3-10,12.2l1.6-.3a31.2,31.2,0,0,0-5.1,5.6"/></svg>